<mxfile host="app.diagrams.net" modified="2020-09-22T21:56:25.175Z" agent="5.0 (Windows NT 10.0; Win64; x64) AppleWebKit/537.36 (KHTML, like Gecko) Chrome/85.0.4183.102 Safari/537.36" etag="SvCUiZ1PMVen-YYe4ZfQ" version="13.7.4" type="github">
  <diagram id="kkPH7L_rUx_UOlJifvof" name="Page-1">
    <mxGraphModel dx="2085" dy="896" grid="1" gridSize="10" guides="1" tooltips="1" connect="1" arrows="1" fold="1" page="1" pageScale="1" pageWidth="827" pageHeight="1169" math="0" shadow="0">
      <root>
        <mxCell id="0" />
        <mxCell id="1" parent="0" />
        <mxCell id="db2Iumnw_9l7NLA8_b3E-5" value="" style="edgeStyle=orthogonalEdgeStyle;rounded=0;orthogonalLoop=1;jettySize=auto;html=1;" edge="1" parent="1" source="db2Iumnw_9l7NLA8_b3E-1" target="db2Iumnw_9l7NLA8_b3E-4">
          <mxGeometry relative="1" as="geometry" />
        </mxCell>
        <mxCell id="db2Iumnw_9l7NLA8_b3E-11" value="" style="edgeStyle=orthogonalEdgeStyle;rounded=0;orthogonalLoop=1;jettySize=auto;html=1;" edge="1" parent="1" source="db2Iumnw_9l7NLA8_b3E-1" target="db2Iumnw_9l7NLA8_b3E-10">
          <mxGeometry relative="1" as="geometry" />
        </mxCell>
        <mxCell id="db2Iumnw_9l7NLA8_b3E-17" value="" style="edgeStyle=orthogonalEdgeStyle;rounded=0;orthogonalLoop=1;jettySize=auto;html=1;" edge="1" parent="1" source="db2Iumnw_9l7NLA8_b3E-1" target="db2Iumnw_9l7NLA8_b3E-16">
          <mxGeometry relative="1" as="geometry" />
        </mxCell>
        <mxCell id="db2Iumnw_9l7NLA8_b3E-39" value="" style="edgeStyle=orthogonalEdgeStyle;rounded=0;orthogonalLoop=1;jettySize=auto;html=1;" edge="1" parent="1" source="db2Iumnw_9l7NLA8_b3E-1" target="db2Iumnw_9l7NLA8_b3E-38">
          <mxGeometry relative="1" as="geometry" />
        </mxCell>
        <mxCell id="db2Iumnw_9l7NLA8_b3E-49" value="" style="edgeStyle=orthogonalEdgeStyle;rounded=0;orthogonalLoop=1;jettySize=auto;html=1;" edge="1" parent="1" source="db2Iumnw_9l7NLA8_b3E-1" target="db2Iumnw_9l7NLA8_b3E-48">
          <mxGeometry relative="1" as="geometry" />
        </mxCell>
        <mxCell id="db2Iumnw_9l7NLA8_b3E-1" value="&lt;span style=&quot;background-color: rgb(0 , 0 , 0)&quot;&gt;&lt;font color=&quot;#ffffff&quot;&gt;&lt;b&gt;Método GTD&lt;br&gt;Getting Things Done&lt;/b&gt;&lt;/font&gt;&lt;/span&gt;" style="rounded=0;whiteSpace=wrap;html=1;fillColor=#000000;" vertex="1" parent="1">
          <mxGeometry x="481.5" y="300" width="120" height="60" as="geometry" />
        </mxCell>
        <mxCell id="db2Iumnw_9l7NLA8_b3E-7" value="" style="edgeStyle=orthogonalEdgeStyle;rounded=0;orthogonalLoop=1;jettySize=auto;html=1;" edge="1" parent="1" source="db2Iumnw_9l7NLA8_b3E-4" target="db2Iumnw_9l7NLA8_b3E-6">
          <mxGeometry relative="1" as="geometry" />
        </mxCell>
        <mxCell id="db2Iumnw_9l7NLA8_b3E-4" value="Es un método para gestionar eficazmente las tareas profesionales y personales, no los contenidos.&lt;br&gt;" style="shape=process;whiteSpace=wrap;html=1;backgroundOutline=1;rounded=0;" vertex="1" parent="1">
          <mxGeometry x="238.5" y="560" width="186" height="105" as="geometry" />
        </mxCell>
        <mxCell id="db2Iumnw_9l7NLA8_b3E-6" value="Fue creado por David Allen, quien publicó un libro con el mismo título en el año 2001." style="shape=process;whiteSpace=wrap;html=1;backgroundOutline=1;rounded=0;" vertex="1" parent="1">
          <mxGeometry x="237" y="720" width="189" height="110" as="geometry" />
        </mxCell>
        <mxCell id="db2Iumnw_9l7NLA8_b3E-13" value="" style="edgeStyle=orthogonalEdgeStyle;rounded=0;orthogonalLoop=1;jettySize=auto;html=1;" edge="1" parent="1" source="db2Iumnw_9l7NLA8_b3E-10" target="db2Iumnw_9l7NLA8_b3E-12">
          <mxGeometry relative="1" as="geometry" />
        </mxCell>
        <mxCell id="db2Iumnw_9l7NLA8_b3E-10" value="En Qué consiste?" style="rhombus;whiteSpace=wrap;html=1;rounded=0;" vertex="1" parent="1">
          <mxGeometry x="501.5" y="440" width="80" height="80" as="geometry" />
        </mxCell>
        <mxCell id="db2Iumnw_9l7NLA8_b3E-15" value="" style="edgeStyle=orthogonalEdgeStyle;rounded=0;orthogonalLoop=1;jettySize=auto;html=1;" edge="1" parent="1" source="db2Iumnw_9l7NLA8_b3E-12" target="db2Iumnw_9l7NLA8_b3E-14">
          <mxGeometry relative="1" as="geometry" />
        </mxCell>
        <mxCell id="db2Iumnw_9l7NLA8_b3E-12" value="En que el individuo debe almacenar la lista de tareas pendientes en un lugar externo llamado INBOX, que puede ser: una aplicación informática, una libreta, etc." style="shape=note;whiteSpace=wrap;html=1;backgroundOutline=1;darkOpacity=0.05;rounded=0;direction=south;" vertex="1" parent="1">
          <mxGeometry x="453" y="560" width="177" height="145" as="geometry" />
        </mxCell>
        <mxCell id="db2Iumnw_9l7NLA8_b3E-14" value="Al hacer esto libera a su mente de la preocupación de olvidarse de alguna de esas tareas y puede concentrar todos sus esfuerzos en ejecutarlas más eficientemente" style="shape=note;whiteSpace=wrap;html=1;backgroundOutline=1;darkOpacity=0.05;rounded=0;" vertex="1" parent="1">
          <mxGeometry x="453" y="740" width="177" height="145" as="geometry" />
        </mxCell>
        <mxCell id="db2Iumnw_9l7NLA8_b3E-19" value="" style="edgeStyle=orthogonalEdgeStyle;rounded=0;orthogonalLoop=1;jettySize=auto;html=1;" edge="1" parent="1" source="db2Iumnw_9l7NLA8_b3E-16" target="db2Iumnw_9l7NLA8_b3E-18">
          <mxGeometry relative="1" as="geometry" />
        </mxCell>
        <mxCell id="db2Iumnw_9l7NLA8_b3E-16" value="Cómo funciona?" style="rhombus;whiteSpace=wrap;html=1;rounded=0;" vertex="1" parent="1">
          <mxGeometry x="645.5" y="290" width="80" height="80" as="geometry" />
        </mxCell>
        <mxCell id="db2Iumnw_9l7NLA8_b3E-21" value="" style="edgeStyle=orthogonalEdgeStyle;rounded=0;orthogonalLoop=1;jettySize=auto;html=1;" edge="1" parent="1" source="db2Iumnw_9l7NLA8_b3E-18" target="db2Iumnw_9l7NLA8_b3E-20">
          <mxGeometry relative="1" as="geometry" />
        </mxCell>
        <mxCell id="db2Iumnw_9l7NLA8_b3E-27" value="" style="edgeStyle=orthogonalEdgeStyle;rounded=0;orthogonalLoop=1;jettySize=auto;html=1;" edge="1" parent="1" source="db2Iumnw_9l7NLA8_b3E-18" target="db2Iumnw_9l7NLA8_b3E-26">
          <mxGeometry relative="1" as="geometry" />
        </mxCell>
        <mxCell id="db2Iumnw_9l7NLA8_b3E-18" value="1. Recopilar / Capturar" style="whiteSpace=wrap;html=1;rounded=0;" vertex="1" parent="1">
          <mxGeometry x="785.5" y="300" width="120" height="60" as="geometry" />
        </mxCell>
        <mxCell id="db2Iumnw_9l7NLA8_b3E-23" value="" style="edgeStyle=orthogonalEdgeStyle;rounded=0;orthogonalLoop=1;jettySize=auto;html=1;" edge="1" parent="1" source="db2Iumnw_9l7NLA8_b3E-20" target="db2Iumnw_9l7NLA8_b3E-22">
          <mxGeometry relative="1" as="geometry" />
        </mxCell>
        <mxCell id="db2Iumnw_9l7NLA8_b3E-29" value="" style="edgeStyle=orthogonalEdgeStyle;rounded=0;orthogonalLoop=1;jettySize=auto;html=1;" edge="1" parent="1" source="db2Iumnw_9l7NLA8_b3E-20" target="db2Iumnw_9l7NLA8_b3E-28">
          <mxGeometry relative="1" as="geometry" />
        </mxCell>
        <mxCell id="db2Iumnw_9l7NLA8_b3E-20" value="2. Procesar" style="whiteSpace=wrap;html=1;rounded=0;" vertex="1" parent="1">
          <mxGeometry x="985.5" y="300" width="120" height="60" as="geometry" />
        </mxCell>
        <mxCell id="db2Iumnw_9l7NLA8_b3E-25" value="" style="edgeStyle=orthogonalEdgeStyle;rounded=0;orthogonalLoop=1;jettySize=auto;html=1;" edge="1" parent="1" source="db2Iumnw_9l7NLA8_b3E-22" target="db2Iumnw_9l7NLA8_b3E-24">
          <mxGeometry relative="1" as="geometry" />
        </mxCell>
        <mxCell id="db2Iumnw_9l7NLA8_b3E-22" value="3. Organizar" style="whiteSpace=wrap;html=1;rounded=0;" vertex="1" parent="1">
          <mxGeometry x="1185.5" y="300" width="120" height="60" as="geometry" />
        </mxCell>
        <mxCell id="db2Iumnw_9l7NLA8_b3E-53" value="" style="edgeStyle=orthogonalEdgeStyle;rounded=0;orthogonalLoop=1;jettySize=auto;html=1;" edge="1" parent="1" source="db2Iumnw_9l7NLA8_b3E-24" target="db2Iumnw_9l7NLA8_b3E-52">
          <mxGeometry relative="1" as="geometry" />
        </mxCell>
        <mxCell id="db2Iumnw_9l7NLA8_b3E-24" value="4. Revisar&lt;br&gt;(rec. semanal)" style="whiteSpace=wrap;html=1;rounded=0;" vertex="1" parent="1">
          <mxGeometry x="1385.5" y="300" width="120" height="60" as="geometry" />
        </mxCell>
        <mxCell id="db2Iumnw_9l7NLA8_b3E-31" value="" style="edgeStyle=orthogonalEdgeStyle;rounded=0;orthogonalLoop=1;jettySize=auto;html=1;" edge="1" parent="1" source="db2Iumnw_9l7NLA8_b3E-26" target="db2Iumnw_9l7NLA8_b3E-30">
          <mxGeometry relative="1" as="geometry" />
        </mxCell>
        <mxCell id="db2Iumnw_9l7NLA8_b3E-26" value="Poner todas las tareas de nuestra mente en un INBOX" style="whiteSpace=wrap;html=1;rounded=0;" vertex="1" parent="1">
          <mxGeometry x="785.5" y="390" width="120" height="60" as="geometry" />
        </mxCell>
        <mxCell id="db2Iumnw_9l7NLA8_b3E-28" value="Sacaremos las tareas de INBOX para no volver a insertarlas" style="whiteSpace=wrap;html=1;rounded=0;" vertex="1" parent="1">
          <mxGeometry x="985.5" y="380" width="120" height="60" as="geometry" />
        </mxCell>
        <mxCell id="db2Iumnw_9l7NLA8_b3E-33" value="" style="edgeStyle=orthogonalEdgeStyle;rounded=0;orthogonalLoop=1;jettySize=auto;html=1;" edge="1" parent="1" source="db2Iumnw_9l7NLA8_b3E-30" target="db2Iumnw_9l7NLA8_b3E-32">
          <mxGeometry relative="1" as="geometry" />
        </mxCell>
        <mxCell id="db2Iumnw_9l7NLA8_b3E-30" value="Cada tarea es un ISSUES (asunto)" style="whiteSpace=wrap;html=1;rounded=0;" vertex="1" parent="1">
          <mxGeometry x="785.5" y="480" width="120" height="60" as="geometry" />
        </mxCell>
        <mxCell id="db2Iumnw_9l7NLA8_b3E-35" value="" style="edgeStyle=orthogonalEdgeStyle;rounded=0;orthogonalLoop=1;jettySize=auto;html=1;" edge="1" parent="1" source="db2Iumnw_9l7NLA8_b3E-32" target="db2Iumnw_9l7NLA8_b3E-34">
          <mxGeometry relative="1" as="geometry" />
        </mxCell>
        <mxCell id="db2Iumnw_9l7NLA8_b3E-32" value="Tu mente es como la memoria RAM - Todo en tu mente la hará explotar" style="whiteSpace=wrap;html=1;rounded=0;" vertex="1" parent="1">
          <mxGeometry x="785.5" y="570" width="120" height="60" as="geometry" />
        </mxCell>
        <mxCell id="db2Iumnw_9l7NLA8_b3E-34" value="Domina tu mente o tu mente te dominará" style="whiteSpace=wrap;html=1;rounded=0;" vertex="1" parent="1">
          <mxGeometry x="785.5" y="670" width="120" height="60" as="geometry" />
        </mxCell>
        <mxCell id="db2Iumnw_9l7NLA8_b3E-41" value="" style="edgeStyle=orthogonalEdgeStyle;rounded=0;orthogonalLoop=1;jettySize=auto;html=1;" edge="1" parent="1" source="db2Iumnw_9l7NLA8_b3E-38" target="db2Iumnw_9l7NLA8_b3E-40">
          <mxGeometry relative="1" as="geometry" />
        </mxCell>
        <mxCell id="db2Iumnw_9l7NLA8_b3E-43" value="" style="edgeStyle=orthogonalEdgeStyle;rounded=0;orthogonalLoop=1;jettySize=auto;html=1;" edge="1" parent="1" source="db2Iumnw_9l7NLA8_b3E-38" target="db2Iumnw_9l7NLA8_b3E-42">
          <mxGeometry relative="1" as="geometry" />
        </mxCell>
        <mxCell id="db2Iumnw_9l7NLA8_b3E-47" value="" style="edgeStyle=orthogonalEdgeStyle;rounded=0;orthogonalLoop=1;jettySize=auto;html=1;" edge="1" parent="1" source="db2Iumnw_9l7NLA8_b3E-38" target="db2Iumnw_9l7NLA8_b3E-46">
          <mxGeometry relative="1" as="geometry" />
        </mxCell>
        <mxCell id="db2Iumnw_9l7NLA8_b3E-38" value="¿Por qué los asuntos no avanzan?" style="rhombus;whiteSpace=wrap;html=1;rounded=0;" vertex="1" parent="1">
          <mxGeometry x="485.75" y="120" width="111.5" height="110" as="geometry" />
        </mxCell>
        <mxCell id="db2Iumnw_9l7NLA8_b3E-40" value="No has clarificado el resultado deseado" style="whiteSpace=wrap;html=1;rounded=0;" vertex="1" parent="1">
          <mxGeometry x="481.5" y="20" width="120" height="60" as="geometry" />
        </mxCell>
        <mxCell id="db2Iumnw_9l7NLA8_b3E-42" value="No has definido la acción siguiente" style="whiteSpace=wrap;html=1;rounded=0;" vertex="1" parent="1">
          <mxGeometry x="320" y="145" width="120" height="60" as="geometry" />
        </mxCell>
        <mxCell id="db2Iumnw_9l7NLA8_b3E-46" value="No has colocado recordatorios en un sistema" style="whiteSpace=wrap;html=1;rounded=0;" vertex="1" parent="1">
          <mxGeometry x="645.5" y="145" width="120" height="60" as="geometry" />
        </mxCell>
        <mxCell id="db2Iumnw_9l7NLA8_b3E-51" value="" style="edgeStyle=orthogonalEdgeStyle;rounded=0;orthogonalLoop=1;jettySize=auto;html=1;" edge="1" parent="1" source="db2Iumnw_9l7NLA8_b3E-48" target="db2Iumnw_9l7NLA8_b3E-50">
          <mxGeometry relative="1" as="geometry" />
        </mxCell>
        <mxCell id="db2Iumnw_9l7NLA8_b3E-55" value="" style="edgeStyle=orthogonalEdgeStyle;rounded=0;orthogonalLoop=1;jettySize=auto;html=1;" edge="1" parent="1" source="db2Iumnw_9l7NLA8_b3E-48" target="db2Iumnw_9l7NLA8_b3E-54">
          <mxGeometry relative="1" as="geometry" />
        </mxCell>
        <mxCell id="db2Iumnw_9l7NLA8_b3E-57" value="" style="edgeStyle=orthogonalEdgeStyle;rounded=0;orthogonalLoop=1;jettySize=auto;html=1;" edge="1" parent="1" source="db2Iumnw_9l7NLA8_b3E-48" target="db2Iumnw_9l7NLA8_b3E-56">
          <mxGeometry relative="1" as="geometry" />
        </mxCell>
        <mxCell id="db2Iumnw_9l7NLA8_b3E-48" value="3 Principios del método" style="rhombus;whiteSpace=wrap;html=1;rounded=0;fillColor=#FFFFFF;shadow=1;" vertex="1" parent="1">
          <mxGeometry x="200" y="290" width="80" height="80" as="geometry" />
        </mxCell>
        <mxCell id="db2Iumnw_9l7NLA8_b3E-50" value="Captura todos los asuntos (sácalos de tu ram)" style="whiteSpace=wrap;html=1;rounded=0;shadow=1;fillColor=#FFFFFF;" vertex="1" parent="1">
          <mxGeometry x="180" y="190" width="120" height="60" as="geometry" />
        </mxCell>
        <mxCell id="db2Iumnw_9l7NLA8_b3E-52" value="5. Hacer" style="whiteSpace=wrap;html=1;rounded=0;" vertex="1" parent="1">
          <mxGeometry x="1585.5" y="300" width="120" height="60" as="geometry" />
        </mxCell>
        <mxCell id="db2Iumnw_9l7NLA8_b3E-54" value="Determina el resultado deseado y la acción siguiente" style="whiteSpace=wrap;html=1;rounded=0;shadow=1;fillColor=#FFFFFF;" vertex="1" parent="1">
          <mxGeometry x="40" y="300" width="120" height="60" as="geometry" />
        </mxCell>
        <mxCell id="db2Iumnw_9l7NLA8_b3E-56" value="Organiza las acciones siguientes en un sistema para que los revises" style="whiteSpace=wrap;html=1;rounded=0;shadow=1;fillColor=#FFFFFF;" vertex="1" parent="1">
          <mxGeometry x="180" y="410" width="120" height="60" as="geometry" />
        </mxCell>
        <mxCell id="db2Iumnw_9l7NLA8_b3E-62" value="" style="edgeStyle=orthogonalEdgeStyle;rounded=0;orthogonalLoop=1;jettySize=auto;html=1;" edge="1" parent="1" source="db2Iumnw_9l7NLA8_b3E-58" target="db2Iumnw_9l7NLA8_b3E-61">
          <mxGeometry relative="1" as="geometry" />
        </mxCell>
        <mxCell id="db2Iumnw_9l7NLA8_b3E-63" value="¿ QUÉ ES ?" style="edgeLabel;html=1;align=center;verticalAlign=middle;resizable=0;points=[];" vertex="1" connectable="0" parent="db2Iumnw_9l7NLA8_b3E-62">
          <mxGeometry x="-0.281" relative="1" as="geometry">
            <mxPoint y="7.5" as="offset" />
          </mxGeometry>
        </mxCell>
        <mxCell id="db2Iumnw_9l7NLA8_b3E-58" value="Asunto" style="rounded=1;whiteSpace=wrap;html=1;shadow=1;fillColor=#FFFFFF;" vertex="1" parent="1">
          <mxGeometry x="1330" y="380" width="120" height="60" as="geometry" />
        </mxCell>
        <mxCell id="db2Iumnw_9l7NLA8_b3E-65" value="" style="edgeStyle=orthogonalEdgeStyle;rounded=0;orthogonalLoop=1;jettySize=auto;html=1;" edge="1" parent="1" source="db2Iumnw_9l7NLA8_b3E-61" target="db2Iumnw_9l7NLA8_b3E-64">
          <mxGeometry relative="1" as="geometry" />
        </mxCell>
        <mxCell id="db2Iumnw_9l7NLA8_b3E-67" value="" style="edgeStyle=orthogonalEdgeStyle;rounded=0;orthogonalLoop=1;jettySize=auto;html=1;" edge="1" parent="1" source="db2Iumnw_9l7NLA8_b3E-61" target="db2Iumnw_9l7NLA8_b3E-66">
          <mxGeometry relative="1" as="geometry" />
        </mxCell>
        <mxCell id="db2Iumnw_9l7NLA8_b3E-61" value="¿Requiere Acción?" style="rhombus;whiteSpace=wrap;html=1;rounded=1;shadow=1;fillColor=#FFFFFF;" vertex="1" parent="1">
          <mxGeometry x="1350" y="510" width="80" height="80" as="geometry" />
        </mxCell>
        <mxCell id="db2Iumnw_9l7NLA8_b3E-77" value="" style="edgeStyle=orthogonalEdgeStyle;rounded=0;orthogonalLoop=1;jettySize=auto;html=1;" edge="1" parent="1" source="db2Iumnw_9l7NLA8_b3E-64" target="db2Iumnw_9l7NLA8_b3E-76">
          <mxGeometry relative="1" as="geometry" />
        </mxCell>
        <mxCell id="db2Iumnw_9l7NLA8_b3E-64" value="SÍ" style="whiteSpace=wrap;html=1;rounded=1;shadow=1;fillColor=#D5E8D4;" vertex="1" parent="1">
          <mxGeometry x="1170" y="520" width="120" height="60" as="geometry" />
        </mxCell>
        <mxCell id="db2Iumnw_9l7NLA8_b3E-69" value="" style="edgeStyle=orthogonalEdgeStyle;rounded=0;orthogonalLoop=1;jettySize=auto;html=1;" edge="1" parent="1" source="db2Iumnw_9l7NLA8_b3E-66" target="db2Iumnw_9l7NLA8_b3E-68">
          <mxGeometry relative="1" as="geometry" />
        </mxCell>
        <mxCell id="db2Iumnw_9l7NLA8_b3E-70" value="" style="edgeStyle=orthogonalEdgeStyle;rounded=0;orthogonalLoop=1;jettySize=auto;html=1;" edge="1" parent="1" source="db2Iumnw_9l7NLA8_b3E-66" target="db2Iumnw_9l7NLA8_b3E-68">
          <mxGeometry relative="1" as="geometry" />
        </mxCell>
        <mxCell id="db2Iumnw_9l7NLA8_b3E-75" style="edgeStyle=orthogonalEdgeStyle;rounded=0;orthogonalLoop=1;jettySize=auto;html=1;entryX=0;entryY=0.5;entryDx=0;entryDy=0;" edge="1" parent="1" source="db2Iumnw_9l7NLA8_b3E-66" target="db2Iumnw_9l7NLA8_b3E-74">
          <mxGeometry relative="1" as="geometry" />
        </mxCell>
        <mxCell id="db2Iumnw_9l7NLA8_b3E-66" value="NO" style="whiteSpace=wrap;html=1;rounded=1;shadow=1;fillColor=#EA6B66;" vertex="1" parent="1">
          <mxGeometry x="1490" y="520" width="120" height="60" as="geometry" />
        </mxCell>
        <mxCell id="db2Iumnw_9l7NLA8_b3E-73" value="" style="edgeStyle=orthogonalEdgeStyle;rounded=0;orthogonalLoop=1;jettySize=auto;html=1;exitX=1;exitY=0.5;exitDx=0;exitDy=0;" edge="1" parent="1" source="db2Iumnw_9l7NLA8_b3E-66" target="db2Iumnw_9l7NLA8_b3E-71">
          <mxGeometry relative="1" as="geometry">
            <Array as="points">
              <mxPoint x="1640" y="550" />
              <mxPoint x="1640" y="470" />
            </Array>
          </mxGeometry>
        </mxCell>
        <mxCell id="db2Iumnw_9l7NLA8_b3E-68" value="ALGÚN DÍA / TAL VEZ" style="whiteSpace=wrap;html=1;rounded=1;shadow=1;fillColor=#FFFFFF;" vertex="1" parent="1">
          <mxGeometry x="1670" y="520" width="120" height="60" as="geometry" />
        </mxCell>
        <mxCell id="db2Iumnw_9l7NLA8_b3E-71" value="BASURA" style="whiteSpace=wrap;html=1;rounded=1;shadow=1;fillColor=#FFFFFF;" vertex="1" parent="1">
          <mxGeometry x="1670" y="440" width="120" height="60" as="geometry" />
        </mxCell>
        <mxCell id="db2Iumnw_9l7NLA8_b3E-74" value="MATERIAL DE REFERENCIA / lo respaldo para analizarlo después" style="whiteSpace=wrap;html=1;rounded=1;shadow=1;fillColor=#FFFFFF;" vertex="1" parent="1">
          <mxGeometry x="1670" y="600" width="120" height="60" as="geometry" />
        </mxCell>
        <mxCell id="db2Iumnw_9l7NLA8_b3E-79" value="" style="edgeStyle=orthogonalEdgeStyle;rounded=0;orthogonalLoop=1;jettySize=auto;html=1;" edge="1" parent="1" source="db2Iumnw_9l7NLA8_b3E-76" target="db2Iumnw_9l7NLA8_b3E-78">
          <mxGeometry relative="1" as="geometry" />
        </mxCell>
        <mxCell id="db2Iumnw_9l7NLA8_b3E-84" value="" style="edgeStyle=orthogonalEdgeStyle;rounded=0;orthogonalLoop=1;jettySize=auto;html=1;" edge="1" parent="1" source="db2Iumnw_9l7NLA8_b3E-76" target="db2Iumnw_9l7NLA8_b3E-83">
          <mxGeometry relative="1" as="geometry" />
        </mxCell>
        <mxCell id="db2Iumnw_9l7NLA8_b3E-76" value="¿Cuál es la siguiente acción?" style="rhombus;whiteSpace=wrap;html=1;rounded=1;shadow=1;fillColor=#FFFFFF;" vertex="1" parent="1">
          <mxGeometry x="1190" y="650" width="80" height="80" as="geometry" />
        </mxCell>
        <mxCell id="db2Iumnw_9l7NLA8_b3E-81" value="" style="edgeStyle=orthogonalEdgeStyle;rounded=0;orthogonalLoop=1;jettySize=auto;html=1;" edge="1" parent="1" source="db2Iumnw_9l7NLA8_b3E-78" target="db2Iumnw_9l7NLA8_b3E-80">
          <mxGeometry relative="1" as="geometry" />
        </mxCell>
        <mxCell id="db2Iumnw_9l7NLA8_b3E-78" value="PRYECTOS (planificar)" style="whiteSpace=wrap;html=1;rounded=1;shadow=1;fillColor=#FFFFFF;" vertex="1" parent="1">
          <mxGeometry x="1010" y="660" width="120" height="60" as="geometry" />
        </mxCell>
        <mxCell id="db2Iumnw_9l7NLA8_b3E-82" style="edgeStyle=orthogonalEdgeStyle;rounded=0;orthogonalLoop=1;jettySize=auto;html=1;" edge="1" parent="1" source="db2Iumnw_9l7NLA8_b3E-80" target="db2Iumnw_9l7NLA8_b3E-76">
          <mxGeometry relative="1" as="geometry" />
        </mxCell>
        <mxCell id="db2Iumnw_9l7NLA8_b3E-80" value="ACCIÓN DEL PROYECTO" style="whiteSpace=wrap;html=1;rounded=1;shadow=1;fillColor=#FFFFFF;" vertex="1" parent="1">
          <mxGeometry x="1010" y="800" width="120" height="60" as="geometry" />
        </mxCell>
        <mxCell id="db2Iumnw_9l7NLA8_b3E-86" value="" style="edgeStyle=orthogonalEdgeStyle;rounded=0;orthogonalLoop=1;jettySize=auto;html=1;" edge="1" parent="1" source="db2Iumnw_9l7NLA8_b3E-83" target="db2Iumnw_9l7NLA8_b3E-85">
          <mxGeometry relative="1" as="geometry" />
        </mxCell>
        <mxCell id="db2Iumnw_9l7NLA8_b3E-88" value="" style="edgeStyle=orthogonalEdgeStyle;rounded=0;orthogonalLoop=1;jettySize=auto;html=1;" edge="1" parent="1" source="db2Iumnw_9l7NLA8_b3E-83" target="db2Iumnw_9l7NLA8_b3E-87">
          <mxGeometry relative="1" as="geometry" />
        </mxCell>
        <mxCell id="db2Iumnw_9l7NLA8_b3E-83" value="¿Llevará dos minutos realizarlo?" style="rhombus;whiteSpace=wrap;html=1;rounded=1;shadow=1;fillColor=#FFFFFF;" vertex="1" parent="1">
          <mxGeometry x="1300" y="745" width="130" height="130" as="geometry" />
        </mxCell>
        <mxCell id="db2Iumnw_9l7NLA8_b3E-90" value="" style="edgeStyle=orthogonalEdgeStyle;rounded=0;orthogonalLoop=1;jettySize=auto;html=1;" edge="1" parent="1" source="db2Iumnw_9l7NLA8_b3E-85" target="db2Iumnw_9l7NLA8_b3E-89">
          <mxGeometry relative="1" as="geometry" />
        </mxCell>
        <mxCell id="db2Iumnw_9l7NLA8_b3E-85" value="SÍ" style="whiteSpace=wrap;html=1;rounded=1;shadow=1;fillColor=#D5E8D4;" vertex="1" parent="1">
          <mxGeometry x="1210" y="930" width="120" height="60" as="geometry" />
        </mxCell>
        <mxCell id="db2Iumnw_9l7NLA8_b3E-92" value="" style="edgeStyle=orthogonalEdgeStyle;rounded=0;orthogonalLoop=1;jettySize=auto;html=1;" edge="1" parent="1" source="db2Iumnw_9l7NLA8_b3E-87" target="db2Iumnw_9l7NLA8_b3E-91">
          <mxGeometry relative="1" as="geometry" />
        </mxCell>
        <mxCell id="db2Iumnw_9l7NLA8_b3E-87" value="NO" style="whiteSpace=wrap;html=1;rounded=1;shadow=1;fillColor=#EA6B66;" vertex="1" parent="1">
          <mxGeometry x="1490" y="780" width="120" height="60" as="geometry" />
        </mxCell>
        <mxCell id="db2Iumnw_9l7NLA8_b3E-89" value="HAZLO AHORA" style="whiteSpace=wrap;html=1;rounded=1;shadow=1;fillColor=#7EA6E0;" vertex="1" parent="1">
          <mxGeometry x="1210" y="1030" width="120" height="60" as="geometry" />
        </mxCell>
        <mxCell id="db2Iumnw_9l7NLA8_b3E-96" value="" style="edgeStyle=orthogonalEdgeStyle;rounded=0;orthogonalLoop=1;jettySize=auto;html=1;" edge="1" parent="1" source="db2Iumnw_9l7NLA8_b3E-91" target="db2Iumnw_9l7NLA8_b3E-95">
          <mxGeometry relative="1" as="geometry" />
        </mxCell>
        <mxCell id="db2Iumnw_9l7NLA8_b3E-100" value="" style="edgeStyle=orthogonalEdgeStyle;rounded=0;orthogonalLoop=1;jettySize=auto;html=1;" edge="1" parent="1" source="db2Iumnw_9l7NLA8_b3E-91" target="db2Iumnw_9l7NLA8_b3E-99">
          <mxGeometry relative="1" as="geometry" />
        </mxCell>
        <mxCell id="db2Iumnw_9l7NLA8_b3E-91" value="¿Eres la persona indicada?" style="rhombus;whiteSpace=wrap;html=1;rounded=1;shadow=1;fillColor=#FFFFFF;" vertex="1" parent="1">
          <mxGeometry x="1480" y="870" width="140" height="90" as="geometry" />
        </mxCell>
        <mxCell id="db2Iumnw_9l7NLA8_b3E-98" value="" style="edgeStyle=orthogonalEdgeStyle;rounded=0;orthogonalLoop=1;jettySize=auto;html=1;" edge="1" parent="1" source="db2Iumnw_9l7NLA8_b3E-95" target="db2Iumnw_9l7NLA8_b3E-97">
          <mxGeometry relative="1" as="geometry" />
        </mxCell>
        <mxCell id="db2Iumnw_9l7NLA8_b3E-95" value="NO" style="whiteSpace=wrap;html=1;rounded=1;shadow=1;fillColor=#FFFFFF;" vertex="1" parent="1">
          <mxGeometry x="1400" y="1000" width="120" height="60" as="geometry" />
        </mxCell>
        <mxCell id="db2Iumnw_9l7NLA8_b3E-97" value="DELÉGALO" style="whiteSpace=wrap;html=1;rounded=1;shadow=1;fillColor=#7EA6E0;" vertex="1" parent="1">
          <mxGeometry x="1400" y="1079" width="120" height="60" as="geometry" />
        </mxCell>
        <mxCell id="db2Iumnw_9l7NLA8_b3E-102" value="" style="edgeStyle=orthogonalEdgeStyle;rounded=0;orthogonalLoop=1;jettySize=auto;html=1;" edge="1" parent="1" source="db2Iumnw_9l7NLA8_b3E-99" target="db2Iumnw_9l7NLA8_b3E-101">
          <mxGeometry relative="1" as="geometry" />
        </mxCell>
        <mxCell id="db2Iumnw_9l7NLA8_b3E-104" value="" style="edgeStyle=orthogonalEdgeStyle;rounded=0;orthogonalLoop=1;jettySize=auto;html=1;" edge="1" parent="1" source="db2Iumnw_9l7NLA8_b3E-99" target="db2Iumnw_9l7NLA8_b3E-103">
          <mxGeometry relative="1" as="geometry" />
        </mxCell>
        <mxCell id="db2Iumnw_9l7NLA8_b3E-99" value="SÍ" style="whiteSpace=wrap;html=1;rounded=1;shadow=1;fillColor=#D5E8D4;" vertex="1" parent="1">
          <mxGeometry x="1585.5" y="1000" width="120" height="60" as="geometry" />
        </mxCell>
        <mxCell id="db2Iumnw_9l7NLA8_b3E-101" value="CALENDARIO" style="whiteSpace=wrap;html=1;rounded=1;shadow=1;fillColor=#7EA6E0;" vertex="1" parent="1">
          <mxGeometry x="1550" y="1100" width="120" height="60" as="geometry" />
        </mxCell>
        <mxCell id="db2Iumnw_9l7NLA8_b3E-103" value="ACCIONES SIGUIENTES" style="whiteSpace=wrap;html=1;rounded=1;shadow=1;fillColor=#7EA6E0;" vertex="1" parent="1">
          <mxGeometry x="1690" y="1100" width="120" height="60" as="geometry" />
        </mxCell>
        <mxCell id="db2Iumnw_9l7NLA8_b3E-106" value="&lt;table border=&quot;1&quot; width=&quot;100%&quot; cellpadding=&quot;4&quot; style=&quot;width: 100% ; height: 100% ; border-collapse: collapse&quot;&gt;&lt;tbody&gt;&lt;tr style=&quot;background-color: #a7c942 ; color: #ffffff ; border: 1px solid #98bf21&quot;&gt;&lt;th align=&quot;left&quot;&gt;HACER&lt;/th&gt;&lt;th align=&quot;left&quot;&gt;3 Tipos de Trabajo&lt;/th&gt;&lt;th align=&quot;left&quot;&gt;6 Niveles para revisar el trabajo&lt;/th&gt;&lt;/tr&gt;&lt;tr style=&quot;border: 1px solid #98bf21&quot;&gt;&lt;td&gt;1. Tiempo disponible&lt;/td&gt;&lt;td&gt;1. Hacer un trabajo predefinido&lt;/td&gt;&lt;td&gt;1. Proyectos Actuales&lt;/td&gt;&lt;/tr&gt;&lt;tr style=&quot;background-color: #eaf2d3 ; border: 1px solid #98bf21&quot;&gt;&lt;td&gt;2. Energía disponible&lt;/td&gt;&lt;td&gt;2. Haciendo wel trabajo que surge en el momento&lt;/td&gt;&lt;td&gt;2. Áreas de responsabilidad&lt;/td&gt;&lt;/tr&gt;&lt;tr style=&quot;border: 1px solid #98bf21&quot;&gt;&lt;td&gt;3. Contexto&lt;/td&gt;&lt;td&gt;3. Definiendo tu trabajo&lt;/td&gt;&lt;td&gt;3. Metas y objetivos&lt;/td&gt;&lt;/tr&gt;&lt;tr style=&quot;background-color: #eaf2d3 ; border: 1px solid #98bf21&quot;&gt;&lt;td&gt;4. Priorizar&lt;/td&gt;&lt;td&gt;&lt;/td&gt;&lt;td&gt;4. Visión&lt;/td&gt;&lt;/tr&gt;&lt;/tbody&gt;&lt;/table&gt;" style="text;html=1;strokeColor=#c0c0c0;fillColor=#ffffff;overflow=fill;rounded=0;shadow=1;" vertex="1" parent="1">
          <mxGeometry x="1787" y="715" width="593" height="235" as="geometry" />
        </mxCell>
      </root>
    </mxGraphModel>
  </diagram>
</mxfile>
